<svg width="51" height="68" viewBox="0 0 51 68" fill="none" xmlns="http://www.w3.org/2000/svg">
<path d="M51 25.2056C51 11.2849 39.583 0 25.5 0C11.4166 0 0 11.2849 0 25.2056C0 30.7193 1.79585 35.8156 4.83445 39.965L4.82793 39.966L25.5 68L46.1721 39.966L46.1655 39.965C49.2035 35.8156 51 30.7193 51 25.2056ZM25.5 35.362C19.8256 35.362 15.2254 30.8149 15.2254 25.2056C15.2254 19.5962 19.8256 15.0494 25.5 15.0494C31.1744 15.0494 35.7746 19.5962 35.7746 25.2056C35.7746 30.8149 31.1744 35.362 25.5 35.362Z" fill="url(#paint0_linear_78_39)"/>
<defs>
<linearGradient id="paint0_linear_78_39" x1="25.5" y1="0" x2="25.5" y2="68" gradientUnits="userSpaceOnUse">
<stop stop-color="#EECDA3"/>
<stop offset="1" stop-color="#EF629F"/>
</linearGradient>
</defs>
</svg>
